<?xml version="1.0" encoding="UTF-8"?>
<svg id="Capa_1" data-name="Capa 1" xmlns="http://www.w3.org/2000/svg" viewBox="0 0 117.31 31">
  <defs>
    <style>
      .cls-1 {
        fill: #bbf247;
      }

      .cls-2 {
        fill: #1a1a1a;
      }
    </style>
  </defs>
  <path class="cls-1" d="M28.48,9.4l-6.88-6.87c-3.36-3.36-8.84-3.36-12.2,0L4.59,7.34l-2.06,2.06c-.21,.21-.42,.44-.61,.67-.08,.1-.16,.2-.23,.3-.08,.11-.16,.22-.23,.33-.07,.1-.13,.19-.19,.3-.08,.12-.15,.25-.21,.37-.05,.09-.1,.17-.14,.26-.03,.07-.07,.14-.1,.21-.04,.09-.09,.19-.12,.28,0,0,0,0,0,.01-.04,.1-.08,.2-.12,.3-1.17,3.08-.52,6.7,1.96,9.17l6.87,6.87c1.68,1.68,3.89,2.52,6.1,2.52s4.42-.84,6.1-2.52l2.95-2.95,1.87-1.87,2.06-2.06c.21-.21,.42-.44,.6-.67,2.74-3.39,2.54-8.38-.6-11.53Zm-10.33,.6c-.74-.74-1.96-.74-2.7,0-.74,.75-.74,1.96,0,2.7l8.27,8.27-1.73,1.73-3.08,3.08c-1.87,1.87-4.93,1.87-6.81,0l-6.87-6.87c-1.03-1.03-1.49-2.41-1.39-3.76,.03-.35,.09-.71,.19-1.05,.03-.1,.07-.21,.1-.3,.13-.35,.3-.68,.52-1l8.21,8.21c.37,.37,.86,.56,1.35,.56s.98-.19,1.35-.56c.74-.74,.74-1.95,0-2.7L7.28,10.03l4.81-4.81c.94-.93,2.17-1.4,3.41-1.4s2.46,.47,3.4,1.4l6.87,6.87c1.66,1.66,1.85,4.24,.58,6.11l-8.21-8.21Z"/>
  <path class="cls-2" d="M41.21,11.77c0,2.6,1.51,4.25,4.39,4.88l2.7,.6c1.39,.3,1.98,.98,1.98,2.12,0,1.42-1.26,2.28-3.23,2.28s-3.07-.86-3.09-2.3h-2.98c.07,3.05,2.44,4.98,6.07,4.98s6.21-2.05,6.21-5.21c0-2.53-1.42-4.02-4.32-4.65l-2.67-.58c-1.42-.33-2.07-1-2.07-2.21,0-1.42,1.19-2.3,3.02-2.3,1.67,0,2.72,.86,2.79,2.32h2.98c-.09-3.07-2.28-4.98-5.72-4.98s-6.04,2.07-6.04,5.05Z"/>
  <path class="cls-2" d="M58.94,24.33c1.79,0,3.35-.81,3.84-2l.21,1.7h2.49v-6.97c0-3.19-1.91-4.86-5-4.86s-5.16,1.63-5.16,4.12h2.42c0-1.21,.93-1.91,2.6-1.91,1.44,0,2.37,.63,2.37,2.19v.26l-3.44,.26c-2.72,.21-4.25,1.53-4.25,3.65s1.49,3.58,3.93,3.58Zm.93-2.14c-1.28,0-1.98-.51-1.98-1.56,0-.93,.67-1.51,2.44-1.67l2.39-.19v.6c0,1.77-1.12,2.81-2.86,2.81Z"/>
  <path class="cls-2" d="M72.01,24.02V14.91h2.23v-2.37h-2.23v-3.58h-2.84v3.58h-2.21v2.37h2.21v9.11h2.84Z"/>
  <path class="cls-2" d="M75.22,18.26c0,3.58,2.58,6.05,6.14,6.05s6.14-2.46,6.14-6.05-2.58-6.05-6.14-6.05-6.14,2.46-6.14,6.05Zm2.84,0c0-2.09,1.35-3.51,3.3-3.51s3.3,1.42,3.3,3.51-1.35,3.51-3.3,3.51-3.3-1.42-3.3-3.51Z"/>
  <path class="cls-2" d="M88.86,20.54c0,2.26,1.81,3.79,4.67,3.79s4.81-1.44,4.81-3.77c0-1.77-.98-2.65-2.91-3.09l-2.07-.49c-.98-.23-1.49-.65-1.49-1.3,0-.86,.65-1.37,1.77-1.37s1.74,.63,1.77,1.6h2.7c-.02-2.23-1.77-3.72-4.35-3.72s-4.56,1.35-4.56,3.6c0,1.84,1,2.81,3.07,3.28l2.07,.49c1.02,.23,1.33,.65,1.33,1.23,0,.84-.72,1.37-2.05,1.37s-2.05-.63-2.07-1.63h-2.7Z"/>
  <path class="cls-2" d="M103.34,24.02v-6.28c0-1.72,1.05-2.98,2.84-2.98,1.44,0,2.4,.93,2.4,2.86v6.39h2.84v-7.07c0-2.98-1.49-4.77-4.32-4.77-1.65,0-3,.72-3.72,1.84V6.73h-2.86V24.02h2.84Z"/>
  <path class="cls-2" d="M115.61,10.24c.93,0,1.7-.77,1.7-1.72s-.77-1.7-1.7-1.7c-.98,0-1.74,.74-1.74,1.7s.77,1.72,1.74,1.72Zm-1.42,13.79h2.84V12.54h-2.84v11.49Z"/>
</svg>