<svg width="119" height="31" viewBox="0 0 119 31" fill="none"
	xmlns="http://www.w3.org/2000/svg">
	<path d="M29.2801 9.3983L22.3999 2.52372C19.0408 -0.841239 13.5639 -0.841239 10.199 2.52372L5.3875 7.33535L3.3246 9.3983C3.11049 9.61241 2.90507 9.84098 2.71701 10.0724C2.636 10.1708 2.56077 10.2721 2.48555 10.3734C2.40454 10.4804 2.32642 10.5904 2.25698 10.7003C2.19043 10.7958 2.12678 10.8942 2.06602 10.9954C1.9908 11.1169 1.91847 11.2414 1.85192 11.3658C1.80273 11.4526 1.75644 11.5394 1.71304 11.6291C1.67832 11.6985 1.6465 11.7679 1.61467 11.8374C1.57127 11.93 1.52787 12.0226 1.49026 12.1151C1.49026 12.1209 1.49026 12.1238 1.48447 12.1296C1.44108 12.2309 1.40057 12.3322 1.36296 12.4334C0.194076 15.5119 0.847955 19.1286 3.3246 21.6053L10.199 28.4799C11.88 30.1609 14.0905 31 16.3009 31C18.5114 31 20.7189 30.1609 22.3999 28.4799L25.3453 25.5345L27.2172 23.6625L29.2801 21.6053C29.4942 21.3912 29.6997 21.1655 29.8848 20.9312C32.6276 17.5431 32.4251 12.5491 29.2801 9.3983ZM18.9483 9.99433C18.2047 9.25074 16.9924 9.25074 16.2459 9.99433C15.5024 10.7408 15.5024 11.9531 16.2459 12.6967L24.5149 20.9659L22.7876 22.6932L19.7034 25.7775C17.8286 27.6524 14.7733 27.6524 12.8955 25.7775L6.02112 18.9029C4.99401 17.8758 4.5282 16.4928 4.62657 15.1474C4.65261 14.7944 4.71626 14.4414 4.82042 14.1C4.85224 13.9958 4.88696 13.8946 4.92457 13.7962C5.05477 13.449 5.22837 13.1134 5.44247 12.798L13.6507 21.0035C14.0239 21.3767 14.5129 21.5619 15.0018 21.5619C15.4908 21.5619 15.9798 21.3767 16.353 21.0035C17.0966 20.2599 17.0966 19.0505 16.353 18.3011L8.08403 10.0319L12.8955 5.22031C13.8358 4.28576 15.0684 3.81704 16.3009 3.81704C17.5335 3.81704 18.7631 4.28576 19.7034 5.22031L26.5778 12.0949C28.2357 13.7528 28.4295 16.3307 27.1565 18.2027L18.9483 9.99433Z" fill="#BBF247"/>
	<path d="M42.0074 11.7723C42.0074 14.3763 43.5187 16.0271 46.4017 16.6548L49.0987 17.2593C50.4937 17.5616 51.0749 18.2358 51.0749 19.3751C51.0749 20.7933 49.8194 21.6536 47.8432 21.6536C45.9367 21.6536 44.7742 20.7933 44.7509 19.3518H41.7749C41.8447 22.3976 44.2162 24.3273 47.8432 24.3273C51.5864 24.3273 54.0509 22.2813 54.0509 19.1193C54.0509 16.5851 52.6327 15.0971 49.7264 14.4693L47.0527 13.8881C45.6344 13.5626 44.9834 12.8883 44.9834 11.6793C44.9834 10.2611 46.1692 9.37755 48.0059 9.37755C49.6799 9.37755 50.7262 10.2378 50.7959 11.7025H53.7719C53.6789 8.63355 51.4934 6.72705 48.0524 6.72705C44.4719 6.72705 42.0074 8.7963 42.0074 11.7723Z" fill="white"/>
	<path d="M59.7424 24.3273C61.5327 24.3273 63.0904 23.5136 63.5787 22.3278L63.7879 24.025H66.2757V17.0501C66.2757 13.8648 64.3692 12.1908 61.2769 12.1908C58.1614 12.1908 56.1154 13.8183 56.1154 16.3061H58.5334C58.5334 15.0971 59.4634 14.3995 61.1374 14.3995C62.5789 14.3995 63.5089 15.0273 63.5089 16.5851V16.8408L60.0679 17.0966C57.3477 17.3058 55.8132 18.6311 55.8132 20.7468C55.8132 22.909 57.3012 24.3273 59.7424 24.3273ZM60.6724 22.1883C59.3937 22.1883 58.6962 21.6768 58.6962 20.6305C58.6962 19.7005 59.3704 19.1193 61.1374 18.9566L63.5322 18.7706V19.3751C63.5322 21.142 62.4162 22.1883 60.6724 22.1883Z" fill="white"/>
	<path d="M72.8093 24.025V14.9111H75.0413V12.5396H72.8093V8.95905H69.9728V12.5396H67.764V14.9111H69.9728V24.025H72.8093Z" fill="white"/>
	<path d="M76.0169 18.2591C76.0169 21.8396 78.5976 24.3041 82.1549 24.3041C85.7121 24.3041 88.2929 21.8396 88.2929 18.2591C88.2929 14.6786 85.7121 12.2141 82.1549 12.2141C78.5976 12.2141 76.0169 14.6786 76.0169 18.2591ZM78.8534 18.2591C78.8534 16.1666 80.2019 14.7483 82.1549 14.7483C84.1079 14.7483 85.4564 16.1666 85.4564 18.2591C85.4564 20.3516 84.1079 21.7698 82.1549 21.7698C80.2019 21.7698 78.8534 20.3516 78.8534 18.2591Z" fill="white"/>
	<path d="M89.6577 20.5375C89.6577 22.7928 91.4712 24.3273 94.331 24.3273C97.1675 24.3273 99.1437 22.8858 99.1437 20.5608C99.1437 18.7938 98.1672 17.9103 96.2375 17.4685L94.1682 16.9803C93.1917 16.7478 92.6802 16.3293 92.6802 15.6783C92.6802 14.8181 93.3312 14.3066 94.4472 14.3066C95.54 14.3066 96.191 14.9343 96.2142 15.9108H98.9112C98.888 13.6788 97.1442 12.1908 94.5635 12.1908C91.913 12.1908 90.0065 13.5393 90.0065 15.7945C90.0065 17.6313 91.0062 18.6078 93.0755 19.0728L95.1447 19.5611C96.1677 19.7936 96.47 20.2121 96.47 20.7933C96.47 21.6303 95.7492 22.1651 94.424 22.1651C93.122 22.1651 92.378 21.5373 92.3547 20.5375H89.6577Z" fill="white"/>
	<path d="M104.14 24.025V17.7476C104.14 16.0271 105.186 14.7716 106.976 14.7716C108.418 14.7716 109.371 15.7016 109.371 17.6313V24.025H112.208V16.9571C112.208 13.9811 110.72 12.1908 107.883 12.1908C106.232 12.1908 104.884 12.9116 104.163 14.0276V6.72705H101.303V24.025H104.14Z" fill="white"/>
	<path d="M116.413 10.2378C117.343 10.2378 118.11 9.47055 118.11 8.5173C118.11 7.56405 117.343 6.82005 116.413 6.82005C115.436 6.82005 114.669 7.56405 114.669 8.5173C114.669 9.47055 115.436 10.2378 116.413 10.2378ZM114.995 24.025H117.831V12.5396H114.995V24.025Z" fill="white"/>
</svg>
